<svg width="36" height="37" viewBox="0 0 36 37" fill="none" xmlns="http://www.w3.org/2000/svg">
<path d="M15.1875 21.0598H5.625C5.32663 21.0598 5.04048 20.9413 4.82951 20.7303C4.61853 20.5193 4.5 20.2332 4.5 19.9348V10.9348C4.5 10.6364 4.61853 10.3503 4.82951 10.1393C5.04048 9.92834 5.32663 9.80981 5.625 9.80981H14.0625C14.3609 9.80981 14.647 9.92834 14.858 10.1393C15.069 10.3503 15.1875 10.6364 15.1875 10.9348V23.3098C15.1875 24.8017 14.5949 26.2324 13.54 27.2873C12.4851 28.3422 11.0543 28.9348 9.5625 28.9348" stroke="black" stroke-width="2" stroke-linecap="round" stroke-linejoin="round"/>
<path d="M31.5 21.0598H21.9375C21.6391 21.0598 21.353 20.9413 21.142 20.7303C20.931 20.5193 20.8125 20.2332 20.8125 19.9348V10.9348C20.8125 10.6364 20.931 10.3503 21.142 10.1393C21.353 9.92834 21.6391 9.80981 21.9375 9.80981H30.375C30.6734 9.80981 30.9595 9.92834 31.1705 10.1393C31.3815 10.3503 31.5 10.6364 31.5 10.9348V23.3098C31.5 24.8017 30.9074 26.2324 29.8525 27.2873C28.7976 28.3422 27.3668 28.9348 25.875 28.9348" stroke="black" stroke-width="2" stroke-linecap="round" stroke-linejoin="round"/>
</svg>
